# xmcd CD database file
#
# Track frame offsets:
#	150
#	24849
#	44515
#	76020
#	93333
#	111372
#	132106
#
# Disc length: 1965 seconds
#
# Revision: 0
# Processed by: cddbd v1.5.2PL0 Copyright (c) Steve Scherf et al.
# Submitted via: CDex 1.51
#
DISCID=4a07ab07
DTITLE=Newman, David Newman - The Weapon
DYEAR=1973
DGENRE=Jazz
TTITLE0=Missy
TTITLE1=Seems Like I Gotta Do Wrong
TTITLE2=You Can´t Allway Get What You Want
TTITLE3=Yes We Can
TTITLE4=Happy Times
TTITLE5=Drown In My Own Tears
TTITLE6=Freedom For The Stallion
EXTD=YEAR: 1973
EXTT0=
EXTT1=
EXTT2=
EXTT3=
EXTT4=
EXTT5=
EXTT6=
PLAYORDER=
